<?xml version="1.0" encoding="UTF-8" standalone="no"?>
<svg
   width="1111.947"
   height="319.1076"
   viewBox="0 0 1111.947 319.10761"
   fill="none"
   version="1.1"
   id="svg7"
   xmlns="http://www.w3.org/2000/svg">
  <defs
     id="defs7" />
  <path
     d="M 58.947332,182.68865 0.00532905,4.5338464 H 51.85643 L 85.094332,118.42865 h 0.886 L 119.21835,4.5338464 h 47.419 l -58.941,178.1548036 v 132.065 H 58.947332 Z"
     fill="#e9e5e1"
     id="path1" />
  <path
     d="m 259.50635,319.18565 c -23.636,0 -41.658,-6.648 -54.067,-19.943 -12.409,-13.59 -18.613,-32.942 -18.613,-58.055 V 4.5338464 h 48.749 V 244.73265 c 0,10.636 2.068,18.318 6.204,23.045 4.432,4.727 10.636,7.091 18.613,7.091 7.978,0 14.034,-2.364 18.171,-7.091 4.431,-4.727 6.647,-12.409 6.647,-23.045 V 4.5338464 h 46.976 V 241.18765 c 0,25.113 -6.204,44.465 -18.613,58.055 -12.409,13.295 -30.431,19.943 -54.067,19.943 z"
     fill="#e9e5e1"
     id="path2" />
  <path
     d="m 366.90635,4.5338464 h 69.578 l 31.022,222.0288036 h 0.886 l 31.022,-222.0288036 h 69.578 V 314.75365 h -46.09 V 79.872649 h -0.886 l -35.454,234.881001 h -40.772 l -35.453,-234.881001 h -0.887 V 314.75365 h -42.544 z"
     fill="#e9e5e1"
     id="path3" />
  <path
     d="m 605.37035,4.5338464 h 73.567 c 25.113,0 43.431,5.9089996 54.953,17.7267996 11.522,11.523003 17.284,29.397003 17.284,53.624003 v 12.409 c 0,15.954001 -2.659,28.954001 -7.977,38.999001 -5.023,10.045 -12.852,17.283 -23.488,21.715 v 0.887 c 24.226,8.272 36.34,29.84 36.34,64.703 v 26.59 c 0,23.931 -6.353,42.249 -19.057,54.953 -12.409,12.409 -30.726,18.613 -54.953,18.613 h -76.669 z m 67.805,126.3038036 c 9.75,0 16.989,-2.511 21.716,-7.534 5.022,-5.022 7.534,-13.443 7.534,-25.261001 v -17.283 c 0,-11.227 -2.068,-19.352 -6.205,-24.375 -3.84,-5.022 -10.045,-7.534 -18.613,-7.534 h -23.488 v 81.987001 z m 8.864,139.599 c 8.568,0 14.92,-2.216 19.056,-6.647 4.137,-4.728 6.205,-12.705 6.205,-23.932 v -27.033 c 0,-14.182 -2.512,-23.931 -7.534,-29.249 -4.727,-5.614 -12.704,-8.421 -23.932,-8.421 h -21.715 v 95.282 z"
     fill="#e9e5e1"
     id="path4" />
  <path
     d="m 855.00735,319.18565 c -23.931,0 -42.249,-6.795 -54.953,-20.386 -12.704,-13.59 -19.056,-32.795 -19.056,-57.612 V 78.100649 c 0,-24.818 6.352,-44.022 19.056,-57.612603 12.704,-13.5905996 31.022,-20.38589962 54.953,-20.38589962 23.932,0 42.249,6.79530002 54.954,20.38589962 12.704,13.590603 19.056,32.794603 19.056,57.612603 V 241.18765 c 0,24.817 -6.352,44.022 -19.056,57.612 -12.705,13.591 -31.022,20.386 -54.954,20.386 z m 0,-44.317 c 16.841,0 25.261,-10.193 25.261,-30.579 V 74.998649 c 0,-20.386 -8.42,-30.579 -25.261,-30.579 -16.84,0 -25.26,10.193 -25.26,30.579 V 244.28965 c 0,20.386 8.42,30.579 25.26,30.579 z"
     fill="#e9e5e1"
     id="path5" />
  <path
     d="M 998.04935,156.09865 944.42435,4.5338464 h 51.405 L 1028.6294,104.69065 h 0.88 l 33.69,-100.1568036 h 46.08 l -53.62,151.5648036 56.28,158.655 h -51.4 l -35.46,-108.134 h -0.88 l -36.34005,108.134 h -46.094 z"
     fill="#e9e5e1"
     id="path6" />
  <path
     d="M -39.10577,169.18865 C -42.51317,97.337649 -23.28357,-25.744154 80.894332,56.744649 211.11635,159.85565 -234.16065,341.24465 233.33935,235.74465 c 234.442,-52.906 418.666,-286.110904 521.777,-96.778 103.111,189.334 110.112,305.611 177.223,169.611 67.11,-136 291.22005,-190.055 137.00005,-188.722 -154.22305,1.334 -198.66805,92 -188.44505,-63.111001 8.177,-124.088703 -153.926,-136.444233 -236,-127.110903"
     stroke="#222222"
     stroke-width="9.77778"
     id="path7" />
</svg>
